<?xml version="1.0" encoding="utf-8"?>
<!-- Generator: Adobe Illustrator 16.0.0, SVG Export Plug-In . SVG Version: 6.00 Build 0)  -->
<!DOCTYPE svg PUBLIC "-//W3C//DTD SVG 1.1//EN" "http://www.w3.org/Graphics/SVG/1.1/DTD/svg11.dtd">
<svg version="1.1" id="Capa_1" xmlns="http://www.w3.org/2000/svg" xmlns:xlink="http://www.w3.org/1999/xlink" x="0px" y="0px"
	 width="300px" height="164px" viewBox="0 76.5 300 164" enable-background="new 0 76.5 300 164" xml:space="preserve">
<g id="Group_17" transform="translate(0 117.589)">
	<g id="Group_16">
		<g id="Group_14" transform="translate(260.198 -18.718)">
			<path id="Path_16" fill="#FFFFFF" d="M6.677,96.298c-0.008,1.267-0.621,2.454-1.648,3.194L-9.05,75.109l8.176-6.914l1.389,2.405
				c4.076,7.071,6.205,15.096,6.17,23.257L6.677,96.298z M-34.993,94.473l-2.705,2.107c-0.01-0.006-0.022-0.002-0.028,0.007
				c-0.001,0.002-0.002,0.004-0.003,0.007l-2.298,1.79c-1.271,0.995-2.617,1.889-4.028,2.671c-0.975,0.551-1.978,1.051-3.004,1.497
				c-0.03,0.011-0.059,0.024-0.086,0.04c-0.992,0.383-2.116,0.135-2.856-0.627c-0.737-0.765-0.948-1.895-0.536-2.874
				c0.451-1.036,0.956-2.048,1.514-3.03c0.781-1.418,1.676-2.771,2.676-4.045l1.777-2.284c0-0.008,0.004-0.015,0.011-0.019
				l2.127-2.739l35.216-40.257c3.237-3.491,7.781-5.477,12.543-5.48c0.816-0.001,1.631,0.057,2.439,0.173l1.51,0.212
				c0.58,0.083,1.037,0.536,1.127,1.116l0.214,1.521c0.792,5.555-1.192,11.146-5.31,14.958L-34.993,94.473z M-34.438,111.276
				l0.01,1.946c0,0.403-0.182,0.785-0.494,1.039l-6.686-11.59c0.257-0.152,0.497-0.32,0.744-0.48
				c0.197-0.13,0.397-0.253,0.588-0.383c0.639-0.428,1.26-0.869,1.845-1.33l0.038-0.029l1.082-0.84
				C-35.423,103.209-34.437,107.212-34.438,111.276 M-61.223,86.449l1.977,0.008c4.062,0,8.062,0.987,11.658,2.875l-0.828,1.066
				c-0.479,0.605-0.932,1.24-1.374,1.898c-0.134,0.19-0.249,0.383-0.376,0.576c-0.162,0.253-0.332,0.494-0.488,0.754l-11.591-6.684
				c0.251-0.309,0.626-0.488,1.022-0.489 M-44.275,45.345l2.444-0.01c8.158-0.017,16.178,2.114,23.25,6.18l2.401,1.379l-6.917,8.178
				L-47.473,46.99c0.742-1.029,1.93-1.642,3.198-1.649 M1.155,66.443l5.916-5.258l0.021-0.02c4.753-4.404,7.042-10.862,6.122-17.277
				l-0.215-1.525c-0.258-1.73-1.616-3.088-3.347-3.347l-1.511-0.215C1.712,37.881-4.76,40.179-9.169,44.95l-5.256,5.912
				l-2.842-1.635c-7.479-4.288-15.949-6.538-24.57-6.527l-2.446,0.009c-2.344,0.012-4.505,1.265-5.681,3.293l-0.461,0.8
				c-0.362,0.629-0.146,1.433,0.481,1.796l25.09,14.486l-19.608,22.215l-1.5,1.931c-4.074-2.229-8.642-3.399-13.285-3.403
				l-1.982-0.012c-1.404,0.016-2.697,0.766-3.41,1.976l-0.562,0.959c-0.177,0.302-0.225,0.662-0.135,1
				c0.092,0.337,0.312,0.625,0.614,0.802l12.78,7.375c-0.362,0.7-0.706,1.4-1.015,2.123c-0.687,1.627-0.518,3.488,0.45,4.965
				c0.967,1.479,2.607,2.377,4.373,2.397c0.726-0.001,1.443-0.151,2.108-0.439c0.034-0.013,0.067-0.027,0.101-0.045
				c0.656-0.284,1.335-0.614,2.022-0.972l7.376,12.773c0.174,0.305,0.462,0.527,0.8,0.621c0.338,0.09,0.698,0.044,1.002-0.13
				l0.97-0.563h0.008c1.207-0.72,1.952-2.018,1.965-3.424l-0.01-1.957c-0.009-4.646-1.186-9.215-3.423-13.287l1.905-1.479
				l22.23-19.634l14.493,25.09c0.364,0.632,1.171,0.849,1.803,0.483c0.001,0,0.001,0,0.001,0l0.799-0.459
				c2.027-1.178,3.279-3.342,3.289-5.686l0.008-2.441c0.035-8.625-2.217-17.104-6.525-24.576L1.155,66.443z"/>
		</g>
		<g id="Group_15" transform="translate(252.709 -61.24)">
			<path id="Path_17" fill="#FFFFFF" d="M5.726,90.895c1.87-1.118,4.292-0.508,5.41,1.362c0.745,1.247,0.745,2.802,0,4.049
				c-0.374,0.625-0.169,1.436,0.456,1.809c0.626,0.373,1.436,0.169,1.809-0.457c1.855-3.128,0.824-7.168-2.304-9.023
				c-2.069-1.227-4.642-1.229-6.712-0.004c-0.409,0.238-0.66,0.676-0.657,1.149c0.004,0.475,0.263,0.91,0.677,1.142
				C4.817,91.148,5.321,91.138,5.726,90.895"/>
		</g>
	</g>
</g>
<g>
	<path fill="#FFFFFF" d="M21.7,165.965c-0.214,0-0.32-0.132-0.32-0.399v-45.6h-10.4c-0.268,0-0.4-0.132-0.4-0.4l0.08-8.96
		c0-0.212,0.106-0.32,0.32-0.32h30.4c0.267,0,0.4,0.108,0.4,0.32v8.96c0,0.268-0.107,0.4-0.32,0.4H30.98l0.08,45.6
		c0,0.268-0.107,0.399-0.32,0.399H21.7z"/>
	<path fill="#FFFFFF" d="M46.02,165.965c-0.214,0-0.32-0.132-0.32-0.399l0.16-54.96c0-0.212,0.106-0.32,0.32-0.32h16.16
		c2.88,0,5.533,0.708,7.96,2.12c2.426,1.414,4.36,3.308,5.8,5.68c1.44,2.374,2.16,5.054,2.16,8.04c0,1.974-0.293,3.748-0.88,5.32
		c-0.587,1.574-1.28,2.908-2.08,4c-0.8,1.094-1.52,1.908-2.16,2.44c2.88,3.2,4.32,6.96,4.32,11.28l0.08,16.4
		c0,0.268-0.134,0.399-0.4,0.399H68.1c-0.214,0-0.32-0.08-0.32-0.24v-16.559c0-1.92-0.68-3.586-2.04-5
		c-1.36-1.413-3.028-2.12-5-2.12h-5.28l-0.08,23.52c0,0.268-0.107,0.399-0.32,0.399H46.02z M55.459,132.445h6.88
		c1.653,0,3.12-0.612,4.4-1.84c1.28-1.227,1.92-2.72,1.92-4.48c0-1.707-0.627-3.173-1.88-4.4c-1.253-1.226-2.733-1.84-4.44-1.84
		h-6.88V132.445z"/>
	<path fill="#FFFFFF" d="M81.539,165.565l9.92-54.96c0.053-0.212,0.187-0.32,0.4-0.32h11.6c0.212,0,0.346,0.108,0.4,0.32l9.52,54.96
		c0.053,0.268-0.054,0.399-0.32,0.399h-8.88c-0.214,0-0.348-0.132-0.4-0.399l-0.88-5.841h-10.88l-0.88,5.841
		c-0.054,0.268-0.188,0.399-0.4,0.399h-8.88C81.646,165.965,81.539,165.833,81.539,165.565z M93.619,151.166h7.68l-3.28-22.48
		l-0.48-2.96l-0.32,2.96L93.619,151.166z"/>
	<path fill="#FFFFFF" d="M122.258,165.965c-0.214,0-0.348-0.132-0.4-0.399l-11.04-54.96c-0.054-0.212,0.052-0.32,0.32-0.32h9.04
		c0.212,0,0.346,0.108,0.4,0.32l6.56,36.64l6.4-36.64c0.053-0.212,0.187-0.32,0.4-0.32h8.96c0.267,0,0.373,0.108,0.32,0.32
		l-10.88,54.96c-0.054,0.268-0.188,0.399-0.4,0.399H122.258z"/>
	<path fill="#FFFFFF" d="M148.258,165.965c-0.214,0-0.32-0.132-0.32-0.399l0.08-54.96c0-0.212,0.106-0.32,0.32-0.32h25.68
		c0.213,0,0.32,0.134,0.32,0.4v8.96c0,0.213-0.107,0.32-0.32,0.32h-16.4v12.48h16.4c0.213,0,0.32,0.107,0.32,0.32l0.08,9.04
		c0,0.214-0.107,0.32-0.32,0.32h-16.48v14h16.48c0.213,0,0.32,0.135,0.32,0.4v9.12c0,0.214-0.107,0.319-0.32,0.319H148.258z"/>
	<path fill="#FFFFFF" d="M181.857,165.965c-0.213,0-0.319-0.132-0.319-0.399l0.08-54.88c0-0.267,0.132-0.4,0.399-0.4h8.88
		c0.267,0,0.4,0.134,0.4,0.4l-0.08,45.439h16.48c0.266,0,0.399,0.135,0.399,0.4v9.04c0,0.268-0.134,0.399-0.399,0.399H181.857z"/>
	<path fill="#FFFFFF" d="M10.86,215.366l7.44-41.22c0.04-0.16,0.14-0.24,0.3-0.24h8.7c0.16,0,0.26,0.08,0.3,0.24l7.14,41.22
		c0.039,0.2-0.041,0.3-0.24,0.3h-6.66c-0.16,0-0.26-0.1-0.3-0.3l-0.66-4.38h-8.16l-0.66,4.38c-0.041,0.2-0.141,0.3-0.3,0.3H11.1
		C10.939,215.666,10.86,215.566,10.86,215.366z M19.92,204.566h5.76l-2.46-16.86l-0.36-2.22l-0.24,2.22L19.92,204.566z"/>
	<path fill="#FFFFFF" d="M48.239,216.266c-2.16,0-4.12-0.54-5.88-1.619c-1.761-1.08-3.17-2.53-4.23-4.351
		c-1.061-1.819-1.59-3.85-1.59-6.09v-19.021c0-2.16,0.529-4.148,1.59-5.97c1.06-1.819,2.479-3.271,4.26-4.35
		c1.78-1.08,3.729-1.62,5.85-1.62c2.2,0,4.19,0.531,5.97,1.59c1.779,1.061,3.189,2.49,4.23,4.29c1.04,1.8,1.56,3.82,1.56,6.06v2.761
		c0,0.16-0.101,0.239-0.3,0.239h-6.72c-0.161,0-0.24-0.079-0.24-0.239v-2.28c0-1.52-0.43-2.779-1.29-3.779
		c-0.86-1-1.93-1.5-3.21-1.5c-1.161,0-2.19,0.479-3.09,1.439s-1.35,2.08-1.35,3.359v19.021c0,1.32,0.44,2.45,1.32,3.39
		c0.879,0.94,1.92,1.41,3.12,1.41c1.28,0,2.35-0.459,3.21-1.38c0.86-0.92,1.29-2.06,1.29-3.42v-2.94h-4.2
		c-0.201,0-0.3-0.099-0.3-0.3v-6.72c0-0.2,0.1-0.3,0.3-0.3h11.22c0.16,0,0.24,0.1,0.24,0.3v9.96c0,2.24-0.531,4.271-1.59,6.09
		c-1.06,1.82-2.47,3.271-4.23,4.351C52.419,215.726,50.439,216.266,48.239,216.266z"/>
	<path fill="#FFFFFF" d="M64.5,215.666c-0.161,0-0.24-0.1-0.24-0.3l0.06-41.22c0-0.16,0.08-0.24,0.24-0.24h19.26
		c0.159,0,0.24,0.1,0.24,0.3v6.72c0,0.16-0.081,0.24-0.24,0.24h-12.3v9.36h12.3c0.159,0,0.24,0.08,0.24,0.239l0.06,6.78
		c0,0.16-0.081,0.24-0.24,0.24H71.52v10.5h12.36c0.159,0,0.24,0.101,0.24,0.3v6.84c0,0.16-0.081,0.24-0.24,0.24H64.5z"/>
	<path fill="#FFFFFF" d="M89.999,215.666c-0.321,0-0.48-0.14-0.48-0.42l-0.06-40.859c0-0.32,0.16-0.48,0.48-0.48h5.4l10.14,23.64
		l-0.3-23.159c0-0.32,0.18-0.48,0.54-0.48h5.94c0.24,0,0.36,0.16,0.36,0.48l0.06,40.919c0,0.24-0.1,0.36-0.3,0.36h-5.28
		l-10.38-22.08l0.42,21.6c0,0.321-0.18,0.48-0.54,0.48H89.999z"/>
	<path fill="#FFFFFF" d="M128.338,216.266c-2.2,0-4.19-0.55-5.97-1.649c-1.781-1.1-3.19-2.57-4.23-4.41
		c-1.041-1.84-1.56-3.9-1.56-6.18l0.06-18.721c0-2.199,0.51-4.209,1.53-6.03c1.02-1.818,2.419-3.279,4.2-4.379
		c1.779-1.1,3.77-1.65,5.97-1.65c2.199,0,4.179,0.54,5.94,1.62c1.76,1.079,3.16,2.53,4.2,4.35c1.04,1.821,1.56,3.851,1.56,6.09
		v2.761c0,0.16-0.081,0.239-0.24,0.239h-6.72c-0.161,0-0.24-0.079-0.24-0.239v-2.761c0-1.319-0.43-2.46-1.29-3.419
		c-0.86-0.961-1.93-1.441-3.21-1.441c-1.44,0-2.541,0.491-3.3,1.471c-0.76,0.98-1.14,2.11-1.14,3.39v18.721
		c0,1.479,0.429,2.68,1.29,3.6c0.86,0.921,1.91,1.38,3.15,1.38c1.28,0,2.35-0.51,3.21-1.53c0.86-1.02,1.29-2.169,1.29-3.449v-2.761
		c0-0.159,0.08-0.239,0.24-0.239h6.78c0.159,0,0.24,0.08,0.24,0.239v2.761c0,2.279-0.531,4.34-1.59,6.18
		c-1.06,1.84-2.47,3.311-4.23,4.41C132.518,215.716,130.538,216.266,128.338,216.266z"/>
	<path fill="#FFFFFF" d="M149.098,215.666c-0.12,0-0.18-0.08-0.18-0.24l0.06-17.04l-8.04-24.239c-0.039-0.16,0.021-0.24,0.18-0.24
		h6.66c0.2,0,0.319,0.08,0.36,0.24l4.44,16.14l4.5-16.14c0.039-0.16,0.14-0.24,0.3-0.24h6.721c0.159,0,0.219,0.08,0.18,0.24
		l-8.101,24l0.061,17.279c0,0.16-0.081,0.24-0.24,0.24H149.098z"/>
</g>
</svg>
